<svg version="1.1" id="Layer_1" xmlns:x="ns_extend;" xmlns:i="ns_ai;" xmlns:graph="ns_graphs;" xmlns="http://www.w3.org/2000/svg" xmlns:xlink="http://www.w3.org/1999/xlink" x="0px" y="0px" viewBox="0 0 137 82" style="enable-background:new 0 0 137 82;" xml:space="preserve">
 <style type="text/css">
  .st0{fill-rule:evenodd;clip-rule:evenodd;fill:#0B8888;}
	.st1{fill-rule:evenodd;clip-rule:evenodd;fill:#63DBC0;}
 </style>
 <metadata>
  <sfw xmlns="ns_sfw;">
   <slices>
   </slices>
   <sliceSourceBounds bottomLeftOrigin="true" height="82" width="137" x="-224.7" y="-30">
   </sliceSourceBounds>
  </sfw>
 </metadata>
 <g>
  <path class="st0" d="M0,41C0,18.4,18.4,0,41,0l10.5,0C53.4,0,55,1.6,55,3.5v20.3c0,1.9-1.6,3.5-3.5,3.5H36c-4.8,0-8.6,3.9-8.6,8.6
		V46c0,4.8,3.9,8.6,8.6,8.6h15.5c1.9,0,3.5,1.6,3.5,3.5v20.3c0,1.9-1.6,3.5-3.5,3.5H41C18.4,82,0,63.6,0,41z">
  </path>
  <path class="st1" d="M137,41c0,22.6-18.4,41-41,41H85.5c-1.9,0-3.5-1.6-3.5-3.5V58.2c0-1.9,1.6-3.5,3.5-3.5H101
		c4.8,0,8.6-3.9,8.6-8.6V36c0-4.8-3.9-8.6-8.6-8.6H85.5c-1.9,0-3.5-1.6-3.5-3.5V3.5C82,1.6,83.6,0,85.5,0L96,0
		C118.6,0,137,18.4,137,41z">
  </path>
 </g>
</svg>